<svg xmlns="http://www.w3.org/2000/svg" viewBox="0 0 560 120" width="560" height="120">
  <defs>
    <style>@import url('https://fonts.googleapis.com/css2?family=Inter:wght@400;500;700&amp;display=swap');</style>
    <linearGradient id="fs" x1="0" y1="0" x2=".15" y2="1">
      <stop offset="0%" stop-color="#1F3375"/><stop offset="50%" stop-color="#1B2B65"/><stop offset="100%" stop-color="#142050"/>
    </linearGradient>
    <linearGradient id="fb" x1="0" y1="1" x2="0" y2="0">
      <stop offset="0%" stop-color="#2068E0"/><stop offset="40%" stop-color="#2D7FF9"/><stop offset="100%" stop-color="#5AB0FF"/>
    </linearGradient>
    <linearGradient id="ft" x1="0" y1="1" x2="1" y2="0">
      <stop offset="0%" stop-color="#5AB0FF"/><stop offset="100%" stop-color="#2D7FF9"/>
    </linearGradient>
    <linearGradient id="fsg" x1="0" y1="0" x2="1" y2="1">
      <stop offset="0%" stop-color="#5AB0FF"/><stop offset="100%" stop-color="#2D7FF9"/>
    </linearGradient>
  </defs>
  <g transform="translate(6,4) scale(0.46)">
    <path d="M 152,28 L 70,28 Q 26,28 26,72 L 26,168 Q 26,212 70,212 L 152,212" fill="none" stroke="url(#fs)" stroke-width="19" stroke-linecap="round" stroke-linejoin="round"/>
    <path d="M 150,42 L 74,42 Q 42,42 42,76 L 42,164 Q 42,198 74,198 L 150,198" fill="none" stroke="#2A3F8F" stroke-width="1.5" stroke-linecap="round" stroke-linejoin="round" opacity=".18"/>
    <path d="M 140,28 L 70,28 Q 26,28 26,72 L 26,100" fill="none" stroke="#3A5099" stroke-width="1" stroke-linecap="round" stroke-linejoin="round" opacity=".25"/>
    <path d="M 54,212 L 36,238 L 80,212" fill="url(#fs)"/>
    <rect x="58" y="154" width="23" height="38" rx="5.5" fill="url(#fb)"/>
    <rect x="58" y="154" width="5"  height="38" rx="2.5" fill="#5AB0FF" opacity=".28"/>
    <rect x="89" y="112" width="23" height="80" rx="5.5" fill="url(#fb)" opacity=".68"/>
    <rect x="89" y="112" width="5"  height="80" rx="2.5" fill="#5AB0FF" opacity=".22"/>
    <rect x="120" y="70" width="23" height="122" rx="5.5" fill="#1B2B65"/>
    <rect x="120" y="70" width="5"  height="122" rx="2.5" fill="#2A3F8F" opacity=".2"/>
    <path d="M 50,180 C 64,162 80,134 98,118 C 116,102 134,74 158,56" fill="none" stroke="url(#ft)" stroke-width="3.5" stroke-linecap="round"/>
    <polygon points="158,56 150,62 153,70" fill="#2D7FF9" opacity=".65"/>
    <path d="M 172,42 L 169,54 L 158,57.5 L 169,61 L 172,73 L 175,61 L 186,57.5 L 175,54 Z" fill="url(#fsg)"/>
    <circle cx="172" cy="57.5" r="2.2" fill="#FFF" opacity=".5"/>
    <path d="M 190,78 L 189,82.5 L 184.5,84 L 189,85.5 L 190,90 L 191,85.5 L 195.5,84 L 191,82.5 Z" fill="#2D7FF9" opacity=".35"/>
    <circle cx="182" cy="34" r="1.4" fill="#5AB0FF" opacity=".25"/>
  </g>
  <text x="126" y="62" font-family="'SF Pro Display','Inter','Helvetica Neue',Arial,sans-serif" font-size="44" font-weight="500" fill="#1B2B65" letter-spacing="-0.8">
    <tspan>Crafter</tspan><tspan font-weight="700" fill="#2D7FF9">IQ</tspan>
  </text>
  <text x="127" y="82" font-family="'Inter','Helvetica Neue',Arial,sans-serif" font-size="11.5" font-weight="400" fill="#94A3B8" letter-spacing="2.8">Intelligence, Crafted.</text>
</svg>
